{"accessors":[{"bufferView":0,"byteOffset":0,"componentType":5126,"count":2048,"max":[0.765553891658783,1.1755097918629986e-16,0.7575640815661933],"min":[-0.7497644424438477,-0.1875,-0.7578256154544738],"type":"VEC3"},{"bufferView":1,"byteOffset":0,"componentType":5125,"count":2048,"type":"SCALAR"}],"asset":{"generator":"VTK","version":"2.0"},"bufferViews":[{"buffer":0,"byteLength":24576,"byteOffset":0},{"buffer":1,"byteLength":8192,"byteOffset":0}],"buffers":[{"byteLength":24576,"uri":"data:application/octet-stream;base64,"},{"byteLength":8192,"uri":"data:application/octet-stream;base64,"}],"cameras":[{"perspective":{"aspectRatio":1.0,"yfov":0.5235987755982988,"zfar":1000.01,"znear":0.01},"type":"perspective"}],"materials":[{"pbrMetallicRoughness":{"baseColorFactor":[0.996078431372549,0.2901960784313726,0.28627450980392155,1.0],"metallicFactor":0.0,"roughnessFactor":1.0}}],"meshes":[{"name":"mesh0","primitives":[{"attributes":{"POSITION":0},"indices":1,"material":0,"mode":0}]}],"nodes":[{"matrix":[2.2204460492503136e-16,-2.2204460492503126e-16,1.0,0.0,1.0,2.220446049250313e-16,-2.220446049250313e-16,0.0,-2.2204460492503126e-16,1.0,2.220446049250313e-16,0.0,0.0,0.0,0.0,1.0],"mesh":0,"name":"mesh0"},{"camera":0,"matrix":[1.0,-0.0,0.0,-0.0,-0.0,1.0,-0.0,0.0,0.0,-0.0,1.0,-0.0,-0.0,0.0,1.0,1.0],"name":"Camera Node"},{"children":[0,1],"name":"Renderer Node"}],"scene":0,"scenes":[{"name":"Layer 0","nodes":[2]}]}