{"accessors":[{"bufferView":0,"byteOffset":0,"componentType":5126,"count":2946,"max":[0.7018630504608154,0.694520890712738,0.75],"min":[-0.6874057054519653,-0.694520890712738,0.0],"type":"VEC3"},{"bufferView":1,"byteOffset":0,"componentType":5125,"count":17676,"type":"SCALAR"}],"asset":{"generator":"VTK","version":"2.0"},"bufferViews":[{"buffer":0,"byteLength":35352,"byteOffset":0},{"buffer":1,"byteLength":70704,"byteOffset":0}],"buffers":[{"byteLength":35352,"uri":"data:application/octet-stream;base64,"},{"byteLength":70704,"uri":"data:application/octet-stream;base64,"}],"cameras":[{"perspective":{"aspectRatio":1.0,"yfov":0.5235987755982988,"zfar":1000.01,"znear":0.01},"type":"perspective"}],"materials":[{"pbrMetallicRoughness":{"baseColorFactor":[0.996078431372549,0.8431372549019608,0.4,1.0],"metallicFactor":0.5,"roughnessFactor":0.1}}],"meshes":[{"name":"mesh0","primitives":[{"attributes":{"POSITION":0},"indices":1,"material":0,"mode":4}]}],"nodes":[{"matrix":[2.2204460492503136e-16,-2.2204460492503126e-16,1.0,0.0,1.0,2.220446049250313e-16,-2.220446049250313e-16,0.0,-2.2204460492503126e-16,1.0,2.220446049250313e-16,0.0,0.0,0.0,0.0,1.0],"mesh":0,"name":"mesh0"},{"camera":0,"matrix":[1.0,-0.0,0.0,-0.0,-0.0,1.0,-0.0,0.0,0.0,-0.0,1.0,-0.0,-0.0,0.0,1.0,1.0],"name":"Camera Node"},{"children":[0,1],"name":"Renderer Node"}],"scene":0,"scenes":[{"name":"Layer 0","nodes":[2]}]}