{"accessors":[{"bufferView":0,"byteOffset":0,"componentType":5126,"count":638,"max":[0.23355263471603394,0.5452191233634949,0.75],"min":[-0.6020412445068359,-0.2067330777645111,0.0],"type":"VEC3"},{"bufferView":1,"byteOffset":0,"componentType":5126,"count":638,"type":"VEC3"},{"bufferView":2,"byteOffset":0,"componentType":5125,"count":1836,"type":"SCALAR"},{"bufferView":3,"byteOffset":0,"componentType":5126,"count":308,"max":[0.23355263471603394,0.5452191233634949,0.75],"min":[-0.6020412445068359,-0.2067330777645111,0.0],"type":"VEC3"},{"bufferView":4,"byteOffset":0,"componentType":5125,"count":636,"type":"SCALAR"}],"asset":{"generator":"VTK","version":"2.0"},"bufferViews":[{"buffer":0,"byteLength":7656,"byteOffset":0},{"buffer":1,"byteLength":7656,"byteOffset":0},{"buffer":2,"byteLength":7344,"byteOffset":0},{"buffer":3,"byteLength":3696,"byteOffset":0},{"buffer":4,"byteLength":2544,"byteOffset":0}],"buffers":[{"byteLength":7656,"uri":"data:application/octet-stream;base64,"},{"byteLength":7656,"uri":"data:application/octet-stream;base64,"},{"byteLength":7344,"uri":"data:application/octet-stream;base64,"},{"byteLength":3696,"uri":"data:application/octet-stream;base64,"},{"byteLength":2544,"uri":"data:application/octet-stream;base64,"}],"cameras":[{"perspective":{"aspectRatio":1.0,"yfov":0.5235987755982988,"zfar":1000.01,"znear":0.01},"type":"perspective"}],"materials":[{"pbrMetallicRoughness":{"baseColorFactor":[0.6588235294117647,0.9019607843137255,0.8117647058823529,1.0],"metallicFactor":1.0,"roughnessFactor":0.3333333333333333}},{"pbrMetallicRoughness":{"baseColorFactor":[0.0,0.0,0.0,1.0],"metallicFactor":0.0,"roughnessFactor":1.0}}],"meshes":[{"name":"mesh0","primitives":[{"attributes":{"NORMAL":1,"POSITION":0},"indices":2,"material":0,"mode":4}]},{"name":"mesh1","primitives":[{"attributes":{"POSITION":3},"indices":4,"material":1,"mode":1}]}],"nodes":[{"matrix":[2.2204460492503136e-16,-2.2204460492503126e-16,1.0,0.0,1.0,2.220446049250313e-16,-2.220446049250313e-16,0.0,-2.2204460492503126e-16,1.0,2.220446049250313e-16,0.0,0.0,0.0,0.0,1.0],"mesh":0,"name":"mesh0"},{"matrix":[2.2204460492503136e-16,-2.2204460492503126e-16,1.0,0.0,1.0,2.220446049250313e-16,-2.220446049250313e-16,0.0,-2.2204460492503126e-16,1.0,2.220446049250313e-16,0.0,0.0,0.0,0.0,1.0],"mesh":1,"name":"mesh1"},{"camera":0,"matrix":[1.0,-0.0,0.0,-0.0,-0.0,1.0,-0.0,0.0,0.0,-0.0,1.0,-0.0,-0.0,0.0,1.0,1.0],"name":"Camera Node"},{"children":[0,1,2],"name":"Renderer Node"}],"scene":0,"scenes":[{"name":"Layer 0","nodes":[3]}]}