{"accessors":[{"bufferView":0,"byteOffset":0,"componentType":5126,"count":2048,"max":[0.7499386320344937,4.3266588203844586e-17,0.2959889169715244],"min":[-0.2968356835670505,-0.5234375,-0.2960325517062084],"type":"VEC3"},{"bufferView":1,"byteOffset":0,"componentType":5125,"count":2048,"type":"SCALAR"},{"bufferView":2,"byteOffset":0,"componentType":5126,"count":4096,"max":[0.8499384450729021,0.10000000000000005,0.3959849135392908],"min":[-0.3968296499050709,-0.6234375,-0.3960070744096552],"type":"VEC3"},{"bufferView":3,"byteOffset":0,"componentType":5125,"count":4096,"type":"SCALAR"}],"asset":{"generator":"VTK","version":"2.0"},"bufferViews":[{"buffer":0,"byteLength":24576,"byteOffset":0},{"buffer":1,"byteLength":8192,"byteOffset":0},{"buffer":2,"byteLength":49152,"byteOffset":0},{"buffer":3,"byteLength":16384,"byteOffset":0}],"buffers":[{"byteLength":24576,"uri":"data:application/octet-stream;base64,"},{"byteLength":8192,"uri":"data:application/octet-stream;base64,"},{"byteLength":49152,"uri":"data:application/octet-stream;base64,"},{"byteLength":16384,"uri":"data:application/octet-stream;base64,"}],"cameras":[{"perspective":{"aspectRatio":1.0,"yfov":0.5235987755982988,"zfar":1000.01,"znear":0.01},"type":"perspective"}],"materials":[{"pbrMetallicRoughness":{"baseColorFactor":[0.596078431372549,1.0,0.596078431372549,1.0],"metallicFactor":0.0,"roughnessFactor":1.0}},{"pbrMetallicRoughness":{"baseColorFactor":[0.0,0.47058823529411764,0.2823529411764706,0.6],"metallicFactor":0.0,"roughnessFactor":1.0}}],"meshes":[{"name":"mesh0","primitives":[{"attributes":{"POSITION":0},"indices":1,"material":0,"mode":0}]},{"name":"mesh1","primitives":[{"attributes":{"POSITION":2},"indices":3,"material":1,"mode":1}]}],"nodes":[{"matrix":[2.2204460492503136e-16,-2.2204460492503126e-16,1.0,0.0,1.0,2.220446049250313e-16,-2.220446049250313e-16,0.0,-2.2204460492503126e-16,1.0,2.220446049250313e-16,0.0,0.0,0.0,0.0,1.0],"mesh":0,"name":"mesh0"},{"matrix":[2.2204460492503136e-16,-2.2204460492503126e-16,1.0,0.0,1.0,2.220446049250313e-16,-2.220446049250313e-16,0.0,-2.2204460492503126e-16,1.0,2.220446049250313e-16,0.0,0.0,0.0,0.0,1.0],"mesh":1,"name":"mesh1"},{"camera":0,"matrix":[1.0,-0.0,0.0,-0.0,-0.0,1.0,-0.0,0.0,0.0,-0.0,1.0,-0.0,-0.0,0.0,1.0,1.0],"name":"Camera Node"},{"children":[0,1,2],"name":"Renderer Node"}],"scene":0,"scenes":[{"name":"Layer 0","nodes":[3]}]}