{"accessors":[{"bufferView":0,"byteOffset":0,"componentType":5126,"count":2380,"max":[0.625,0.6236842274665833,0.75],"min":[-4.5924253663221344e-17,0.0,-3.8189645097262605e-17],"type":"VEC3"},{"bufferView":1,"byteOffset":0,"componentType":5125,"count":14268,"type":"SCALAR"}],"asset":{"generator":"VTK","version":"2.0"},"bufferViews":[{"buffer":0,"byteLength":28560,"byteOffset":0},{"buffer":1,"byteLength":57072,"byteOffset":0}],"buffers":[{"byteLength":28560,"uri":"data:application/octet-stream;base64,"},{"byteLength":57072,"uri":"data:application/octet-stream;base64,"}],"cameras":[{"perspective":{"aspectRatio":1.0,"yfov":0.5235987755982988,"zfar":1000.01,"znear":0.01},"type":"perspective"}],"materials":[{"pbrMetallicRoughness":{"baseColorFactor":[0.996078431372549,0.8431372549019608,0.4,1.0],"metallicFactor":0.5,"roughnessFactor":0.1}}],"meshes":[{"name":"mesh0","primitives":[{"attributes":{"POSITION":0},"indices":1,"material":0,"mode":4}]}],"nodes":[{"matrix":[2.2204460492503136e-16,-2.2204460492503126e-16,1.0,0.0,1.0,2.220446049250313e-16,-2.220446049250313e-16,0.0,-2.2204460492503126e-16,1.0,2.220446049250313e-16,0.0,0.0,0.0,0.0,1.0],"mesh":0,"name":"mesh0"},{"camera":0,"matrix":[1.0,-0.0,0.0,-0.0,-0.0,1.0,-0.0,0.0,0.0,-0.0,1.0,-0.0,-0.0,0.0,1.0,1.0],"name":"Camera Node"},{"children":[0,1],"name":"Renderer Node"}],"scene":0,"scenes":[{"name":"Layer 0","nodes":[2]}]}